<svg width="69" height="47" viewBox="0 0 69 47" fill="none" xmlns="http://www.w3.org/2000/svg">
<path fill-rule="evenodd" clip-rule="evenodd" d="M57.5306 20.4222C56.5277 20.4222 55.7126 19.6725 55.7126 18.7489C55.7126 17.8246 56.5277 17.0764 57.5306 17.0764C58.5354 17.0764 59.3494 17.8246 59.3494 18.7489C59.3494 19.6725 58.5354 20.4222 57.5306 20.4222ZM65.5845 16.9227C64.6694 17.0873 63.6714 17.2525 62.9334 16.4516C61.8603 15.284 61.7207 14.9004 61.4278 14.0956C61.1738 13.3979 60.8046 12.3836 59.6119 10.2672C58.7755 8.77586 56.5867 7.52024 56.5867 7.52024C56.5867 7.52024 57.1629 3.95481 58.6776 0.74399C58.881 0.317598 58.4245 0.100342 57.6181 0.100342C55.6668 0.100342 51.6616 1.3713 49.9719 4.0287C49.9719 4.0287 50.0478 3.86639 48.3274 3.10042C46.6316 2.34489 43.6657 1.56148 41.143 1.04857H41.1428C40.923 0.991424 40.5643 0.920442 40.1098 0.846853C39.4412 2.4668 38.714 4.4178 38.0325 6.63297C38.1287 6.63568 38.2262 6.63878 38.3251 6.64219C40.7282 6.86617 44.8172 7.5035 46.3814 9.65932C47.5804 11.312 46.2438 13.2631 44.7071 12.5761C39.9477 10.4485 39.0043 10.2094 37.0301 10.2575L36.897 10.2611C34.6929 10.3252 33.2505 11.2678 32.4618 12.4885C31.7356 13.6122 31.5639 14.9715 31.8632 16.0982C31.9749 16.5185 32.1516 16.9067 32.39 17.2378C33.1768 18.3318 34.2766 18.9954 35.4986 19.4775C36.3799 19.8252 37.3248 20.0782 38.2622 20.3292C39.8906 20.7651 41.4961 21.195 42.7051 22.1048C43.9774 23.0591 48.9569 26.8572 45.1507 32.8951C43.577 35.3893 40.4806 36.8497 38.8416 37.48C38.3264 37.6618 37.7904 37.8121 37.2553 37.9349C38.1159 40.8316 39.257 43.6331 40.6748 46.3221C40.8559 46.2854 41.0293 46.249 41.1932 46.2139L41.2036 46.2162C41.2078 46.2171 41.2119 46.2179 41.216 46.2184C41.6384 46.1287 42.0637 46.026 42.4903 45.9135C42.5936 45.8871 42.6722 45.8662 42.7212 45.8523C42.7223 45.852 42.7232 45.8514 42.7241 45.8508C42.7248 45.8503 42.7256 45.8498 42.7266 45.8494C48.4273 44.2922 54.3845 40.7927 58.1743 37.2529C58.8998 36.5733 60.054 35.3283 61.7061 33.1419C61.8847 32.9047 61.2535 32.6801 60.0056 32.2361L60.0056 32.2361C59.3103 31.9887 58.4237 31.6733 57.379 31.2496C56.901 31.0596 57.1892 30.4608 57.4819 30.5574C60.2273 31.4716 62.8945 31.5382 63.135 31.2985C64.0004 30.4394 65.1772 29.7055 66.1813 29.309C67.602 28.7459 67.6663 26.5358 67.7473 23.7484V23.7481C67.7799 22.6272 67.8152 21.4129 67.9426 20.1748C68.3206 16.429 67.0867 16.6517 65.6294 16.9146L65.5845 16.9227ZM6.26317 18.3039C6.22062 18.3039 6.17869 18.3007 6.13706 18.2958C5.6706 18.2426 5.27296 17.8985 5.17948 17.4255C5.06064 16.8281 5.45521 16.2579 6.05975 16.1412C6.65784 16.0247 7.24386 16.4075 7.36219 17.0029C7.36669 17.0255 7.36944 17.048 7.3722 17.0705L7.37334 17.0797C7.44319 17.6406 7.05373 18.171 6.47998 18.2826C6.40737 18.297 6.33465 18.3039 6.26317 18.3039ZM9.62109 15.6041C9.47831 15.0978 8.93034 13.9197 7.01937 13.8923C6.9441 13.8912 6.86954 13.8905 6.79611 13.8905C4.08639 13.8905 2.6197 14.6692 2.44348 16.1957C2.31094 17.3316 3.30043 18.72 4.53977 19.8921C3.46867 20.7199 2.37844 21.1119 1.29179 21.0556C1.23002 21.0526 1.16937 21.0555 1.10954 21.0612C0.514621 21.1177 0.034041 21.591 0.00172283 22.1939C-0.0253794 22.699 0.26978 23.1471 0.71078 23.3479C0.849052 23.4107 1.00123 23.4501 1.16272 23.4585C1.27645 23.4645 1.38854 23.4672 1.50012 23.4672C3.55365 23.4672 5.24484 22.4959 6.47385 21.4449C7.18833 21.9192 8.27129 22.4814 9.20913 22.8925C9.22263 21.9802 9.293 21.0712 9.4194 20.1674C9.02463 19.9711 8.66289 19.7685 8.36855 19.5675C9.39578 18.2215 9.96206 16.7785 9.62109 15.6041ZM32.2557 38.1583C32.2776 38.1588 32.3001 38.162 32.3237 38.1707C32.6351 38.2278 32.9345 38.2751 33.2182 38.3119C34.0517 41.2789 35.1547 44.156 36.5241 46.9281C35.8606 46.975 35.2261 46.986 34.6704 46.9414L34.667 46.941C32.299 46.8912 30.1503 46.4753 29.2501 46.2185C21.1705 43.9126 15.7016 39.0333 12.5667 31.843C12.2576 31.1012 11.9689 30.3273 11.709 29.5173C11.6241 29.2536 11.5467 28.9836 11.4719 28.7111C11.4626 28.6761 11.4529 28.641 11.4432 28.6059C11.4368 28.5829 11.4304 28.5599 11.4241 28.5369C11.3756 28.3508 11.331 28.1611 11.2865 27.9721L11.2848 27.9649C11.2248 27.708 11.1681 27.4502 11.1185 27.1884C11.1174 27.1828 11.1162 27.1771 11.115 27.1714C11.1083 27.1392 11.1014 27.1061 11.0962 27.072C10.6151 24.4726 10.6052 21.7659 11.1664 19.0524C13.3105 8.70911 20.2501 1.30344 32.8296 0.501388C32.8296 0.501388 33.2942 0.471211 33.9281 0.448152H33.9284C34.3929 0.421985 34.8805 0.415468 35.3743 0.422887C35.5806 0.424191 35.783 0.428502 35.9774 0.43582C35.2705 2.23453 34.5289 4.34784 33.8489 6.71811C33.4008 6.7556 33.0993 6.7939 32.9468 6.81556C32.9323 6.8179 32.9176 6.81996 32.9029 6.82202C32.8849 6.82454 32.8669 6.82706 32.8492 6.83009L32.8354 6.8323C28.4261 7.59636 26.1537 11.1633 25.7332 14.6763C25.5862 15.9038 25.9422 17.1506 26.5909 18.2824C27.5478 19.9525 29.3413 20.7315 31.3784 21.3004C32.0423 21.4859 32.732 21.6491 33.4271 21.8135C34.0612 21.9635 34.6997 22.1146 35.3271 22.2846C37.1164 22.7695 38.8151 23.4084 40.0619 24.6169C41.5087 26.0191 41.6702 28.3169 41.4217 29.6173C40.962 32.0241 39.17 33.813 36.3217 34.2437C35.1299 34.4239 33.7533 34.3663 32.2116 34.0163C30.4427 33.6148 28.457 32.8292 26.2845 31.5762C24.37 30.4736 22.4091 32.9334 23.4187 34.1866C24.9124 36.0411 29.1515 37.5783 32.2557 38.1583Z" fill="#E64164"/>
</svg>
